<?xml version="1.0" standalone="no"?>
<!DOCTYPE svg PUBLIC "-//W3C//DTD SVG 20010904//EN"
 "http://www.w3.org/TR/2001/REC-SVG-20010904/DTD/svg10.dtd">
<svg version="1.0" xmlns="http://www.w3.org/2000/svg"
 width="782.000000pt" height="782.000000pt" viewBox="0 0 782.000000 782.000000"
 preserveAspectRatio="xMidYMid meet">
<metadata>
Created by potrace 1.14, written by Peter Selinger 2001-2017
</metadata>
<g transform="translate(0.000000,782.000000) scale(0.100000,-0.100000)"
fill="#000000" stroke="none">
<path d="M3938 5092 l-108 -131 0 -347 0 -347 -36 -43 c-34 -42 -38 -44 -90
-44 l-54 0 0 281 0 281 -110 -134 -110 -133 0 -392 0 -393 108 -131 107 -132
3 277 2 276 58 -1 c54 0 58 -2 90 -41 l32 -40 0 -348 0 -347 108 -131 107
-131 3 511 2 512 -45 57 c-25 31 -45 60 -45 64 0 4 20 31 45 60 l45 52 -2 513
-3 513 -107 -131z m92 -406 l0 -484 -49 -59 -50 -60 50 -61 49 -61 0 -486 0
-486 -90 108 -89 108 -1 349 0 348 -41 49 -41 49 -69 0 -69 0 -2 -260 -3 -259
-87 106 -88 107 0 388 0 388 88 107 87 106 3 -257 2 -256 73 0 72 0 38 46 37
47 0 347 0 347 87 107 c48 58 88 106 90 106 2 0 3 -218 3 -484z"/>
<path d="M4140 4078 l1 -1143 35 40 c20 22 69 81 110 131 l74 91 0 391 0 392
95 0 95 0 2 -274 3 -275 107 132 108 132 0 388 0 388 -107 131 -108 130 -5
-273 -5 -274 -90 0 -90 0 -5 395 -5 395 -99 120 c-54 66 -103 122 -107 123 -5
2 -9 -496 -9 -1140z m123 982 l87 -109 0 -390 0 -391 105 0 105 0 0 256 c0
151 4 254 9 252 5 -1 48 -50 95 -107 l86 -105 0 -384 0 -383 -87 -109 c-49
-60 -91 -109 -95 -109 -5 -1 -8 116 -8 259 l0 260 -105 0 -105 0 0 -394 0
-394 -81 -98 c-44 -55 -87 -106 -95 -114 -12 -12 -14 133 -14 1078 0 601 3
1092 8 1091 4 0 46 -49 95 -109z"/>
<path d="M2200 4766 c0 -12 -421 -1209 -434 -1234 -10 -20 -35 -40 -71 -57
-30 -15 -55 -31 -55 -36 0 -5 61 -9 135 -9 81 0 135 4 135 10 0 5 -18 19 -40
30 -23 12 -42 30 -45 43 -6 23 22 121 77 275 l30 82 222 0 222 0 54 -165 c61
-188 61 -206 -3 -240 -20 -11 -37 -23 -37 -27 0 -5 117 -8 260 -8 143 0 260 4
260 8 0 4 -20 18 -45 30 -31 15 -51 33 -63 58 -9 20 -109 307 -222 638 l-206
601 -87 3 c-48 1 -87 1 -87 -2z m63 -545 c53 -164 97 -301 97 -305 0 -3 -92
-6 -205 -6 -113 0 -205 3 -205 8 0 15 205 602 211 602 3 0 49 -134 102 -299z"/>
<path d="M574 4752 c3 -5 23 -17 44 -26 22 -10 45 -29 51 -42 17 -37 15 -1140
-2 -1174 -6 -14 -31 -34 -54 -45 -24 -11 -43 -23 -43 -27 0 -5 124 -8 276 -8
283 0 317 5 229 36 -73 25 -81 42 -88 205 -4 79 -7 206 -7 282 l0 137 126 0
c69 0 134 -5 144 -10 11 -6 38 -42 60 -80 23 -39 45 -68 51 -65 13 8 12 355
-1 355 -5 0 -23 -24 -40 -53 -55 -99 -62 -102 -208 -102 l-127 0 -3 130 c-2
72 0 203 3 293 l7 162 183 0 c223 0 211 7 305 -169 35 -67 69 -121 75 -121 11
0 10 140 -1 268 l-6 62 -489 0 c-270 0 -488 -4 -485 -8z"/>
<path d="M5475 4690 c4 -6 25 -18 47 -27 24 -10 43 -25 49 -40 5 -14 9 -270 9
-592 0 -555 0 -569 -20 -594 -11 -14 -36 -31 -55 -37 -19 -6 -35 -16 -35 -21
0 -5 108 -9 260 -9 158 0 260 4 260 10 0 5 -20 18 -45 29 -29 13 -49 29 -55
46 -6 15 -10 139 -10 291 l0 264 68 0 68 0 150 -320 149 -320 183 0 c100 0
182 4 182 8 0 5 -18 17 -41 27 -23 11 -51 33 -64 49 -13 17 -86 157 -163 312
l-140 281 64 31 c85 42 137 91 174 164 25 51 30 73 30 132 0 160 -108 269
-307 311 -84 18 -769 22 -758 5z m618 -41 c21 -5 54 -24 74 -42 55 -48 76
-105 81 -223 7 -160 -30 -255 -118 -304 -38 -20 -62 -25 -147 -28 l-103 -4 0
306 0 306 88 0 c48 0 104 -5 125 -11z"/>
<path d="M6745 4690 c4 -6 24 -18 44 -26 22 -8 43 -26 50 -40 8 -18 11 -190
11 -592 0 -631 4 -594 -69 -627 -23 -10 -41 -22 -41 -27 0 -4 117 -8 260 -8
266 0 298 5 226 35 -69 29 -66 -2 -66 633 0 338 4 581 9 591 6 10 28 26 50 36
23 10 41 22 41 27 0 4 -117 8 -261 8 -178 0 -258 -3 -254 -10z"/>
<path d="M3210 4208 c-41 -51 -81 -100 -88 -110 -12 -16 -3 -30 75 -125 l88
-107 3 112 c1 62 1 160 0 217 l-3 105 -75 -92z"/>
<path d="M4900 4079 c0 -192 2 -221 14 -209 8 8 50 59 95 113 l80 99 -81 99
c-44 54 -87 104 -94 110 -12 10 -14 -24 -14 -212z"/>
<path d="M3449 2337 c-23 -18 -36 -47 -44 -98 -5 -34 -13 -50 -28 -57 l-22
-11 23 0 c21 -1 22 -4 22 -111 0 -105 -1 -111 -22 -120 -17 -6 -2 -9 52 -8 41
0 66 2 55 5 -37 9 -45 32 -45 135 l0 98 40 0 c22 0 40 5 40 10 0 6 -18 10 -40
10 l-40 0 0 54 c0 79 37 109 80 66 25 -25 26 -25 33 0 9 35 -67 55 -104 27z"/>
<path d="M5096 2340 c28 -11 34 -46 34 -200 0 -154 -6 -189 -34 -200 -14 -6 1
-9 49 -9 50 0 64 3 48 9 -25 10 -39 75 -30 143 11 80 93 116 137 60 19 -25 21
-38 18 -120 l-3 -93 45 1 c36 0 41 2 23 9 -19 8 -21 17 -25 109 -3 89 -6 103
-26 123 -33 34 -110 32 -148 -2 l-27 -25 6 103 6 102 -47 -1 c-36 0 -42 -2
-26 -9z"/>
<path d="M663 2278 c-22 -114 -106 -206 -205 -224 l-43 -7 41 -13 c65 -19 99
-40 141 -88 40 -46 72 -123 74 -180 1 -22 4 -16 10 21 12 74 44 136 93 181
l42 39 330 7 c962 19 1339 28 1342 31 1 1 -212 6 -475 10 -263 4 -638 10 -834
14 l-356 6 -36 28 c-48 37 -85 101 -100 176 l-13 60 -11 -61z"/>
<path d="M7331 2298 c-1 -52 -35 -137 -69 -174 -62 -68 -12 -63 -748 -75
-1057 -16 -1104 -22 -309 -37 374 -7 752 -15 839 -19 159 -6 159 -6 193 -36
44 -39 83 -115 90 -179 l6 -50 18 70 c30 120 95 191 197 217 l47 12 -55 16
c-101 30 -168 108 -194 228 -12 55 -14 59 -15 27z"/>
<path d="M2678 2298 c22 -11 22 -15 22 -178 0 -163 0 -167 -22 -178 -19 -9
-10 -11 47 -11 57 0 66 2 48 11 -23 11 -23 15 -23 178 0 163 0 167 23 178 18
9 9 11 -48 11 -57 0 -66 -2 -47 -11z"/>
<path d="M4099 2273 c-1 -5 0 -25 1 -45 1 -32 -2 -38 -19 -38 -11 0 -23 -4
-26 -10 -4 -6 5 -10 20 -10 l26 0 -3 -103 c-3 -115 5 -137 51 -137 15 0 36 7
47 16 18 15 18 15 -9 9 -49 -10 -57 6 -57 116 l0 99 40 0 c51 0 53 18 3 22
l-38 3 3 43 c3 37 1 42 -17 42 -12 0 -21 -3 -22 -7z"/>
<path d="M3041 2174 c-30 -25 -31 -25 -31 -5 0 18 -6 21 -42 20 -36 0 -39 -2
-20 -9 21 -9 22 -15 22 -120 0 -105 -1 -111 -22 -120 -17 -6 -7 -9 42 -9 36 1
58 3 50 6 -25 10 -30 25 -30 101 0 68 2 76 29 103 34 34 69 37 102 10 23 -18
24 -25 23 -120 l-2 -101 47 1 c35 0 41 2 25 9 -19 7 -22 19 -27 102 -6 111
-11 124 -48 143 -42 22 -83 18 -118 -11z"/>
<path d="M3714 2181 c-48 -29 -64 -59 -64 -117 0 -80 55 -134 135 -134 113 0
178 114 118 208 -37 59 -129 79 -189 43z m132 -35 c28 -28 34 -42 34 -75 0
-72 -41 -121 -100 -121 -35 0 -81 51 -87 97 -15 111 80 172 153 99z"/>
<path d="M4404 2181 c-48 -29 -64 -59 -64 -117 0 -104 94 -162 195 -120 41 18
49 41 9 26 -82 -32 -164 16 -164 95 0 25 1 25 99 25 55 0 103 4 106 10 10 16
-24 69 -55 85 -39 20 -89 19 -126 -4z m110 -22 c48 -38 35 -49 -55 -49 l-81 0
14 23 c17 24 54 47 79 47 9 0 28 -9 43 -21z"/>
<path d="M4801 2183 c-71 -35 -95 -135 -46 -199 45 -58 144 -70 197 -23 20 18
21 20 3 14 -43 -15 -96 -17 -125 -5 -78 32 -81 158 -5 195 44 20 67 19 98 -5
32 -25 37 -25 37 0 0 40 -97 54 -159 23z"/>
</g>
</svg>
